<svg xmlns="http://www.w3.org/2000/svg" xmlns:xlink="http://www.w3.org/1999/xlink" width="690" height="690" viewBox="0 0 690 690">
  <defs>
    <style>
      .cls-1 {
        stroke-miterlimit: 10;
        fill: url(#linear-gradient);
      }

      .cls-2, .cls-3 {
        fill: #000303;
      }

      .cls-2 {
        stroke: #850b35;
        font-size: 60px;
        font-family: AirbnbCerealApp-Book, Airbnb Cereal App;
        letter-spacing: 0.021em;
      }

      .cls-3 {
        stroke: #e4175d;
        font-size: 200px;
        font-family: BrushScriptMT, Brush Script MT;
        letter-spacing: 0.009em;
      }

      .cls-4 {
        font-family: Apple-Chancery, Apple Chancery;
      }

      .cls-5 {
        fill: none;
        stroke: rgba(235,0,80,0.98);
        stroke-width: 6px;
      }

      .cls-6, .cls-7 {
        stroke: none;
      }

      .cls-7 {
        fill: #e4175d;
      }
    </style>
    <linearGradient id="linear-gradient" x1="0.5" y1="0.539" x2="0.5" y2="1" gradientUnits="objectBoundingBox">
      <stop offset="0" stop-color="#dd5965"/>
      <stop offset="0.983" stop-color="#dc99a0"/>
      <stop offset="1" stop-color="#d8d8d8"/>
    </linearGradient>
  </defs>
  <g id="Group_2" data-name="Group 2" transform="translate(-23)">
    <g id="Component_2_1" data-name="Component 2 â 1" transform="translate(23)">
      <g id="Oval" class="cls-1" transform="translate(0 0)">
        <path class="cls-6" d="M 345 689.5 C 333.2490844726562 689.5 321.3986511230469 688.8840942382812 309.7777404785156 687.6693725585938 C 298.3251037597656 686.47216796875 286.8171691894531 684.6644287109375 275.5735473632812 682.2962646484375 C 253.4556427001953 677.6377563476562 231.6996307373047 670.6864624023438 210.9100036621094 661.6356201171875 C 190.4973602294922 652.7490234375 170.8093566894531 641.7496337890625 152.3926391601562 628.9431762695312 C 134.1505432128906 616.2581176757812 116.996452331543 601.6900634765625 101.4067306518555 585.643798828125 C 85.81681823730469 569.5972900390625 71.66309356689453 551.9402465820312 59.33854675292969 533.1633911132812 C 46.89581680297852 514.2061157226562 36.2087287902832 493.9400024414062 27.57427215576172 472.9280090332031 C 18.78018188476562 451.5273742675781 12.02600002288818 429.1318969726562 7.499545574188232 406.3637390136719 C 5.198545455932617 394.7894592285156 3.441999912261963 382.9429931640625 2.278818130493164 371.1535339355469 C 1.098454594612122 359.1908264160156 0.5 346.9918212890625 0.5 334.895263671875 C 0.5 322.8009948730469 1.098454594612122 310.6785583496094 2.278727293014526 298.8645324707031 C 3.441454648971558 287.2262878417969 5.197818279266357 275.5962829589844 7.499090671539307 264.2974548339844 C 9.768817901611328 253.1537322998047 12.62481784820557 242.055908203125 15.98772716522217 231.3123626708984 C 19.30890846252441 220.7019958496094 23.2061824798584 210.17626953125 27.57109069824219 200.0278167724609 C 36.18254470825195 180.0063629150391 46.86781692504883 160.8309020996094 59.33018112182617 143.0340881347656 C 71.61118316650391 125.4961853027344 85.76290893554688 109.0881805419922 101.3921813964844 94.26581573486328 C 116.9175491333008 79.54218292236328 134.0702667236328 66.22181701660156 152.3739929199219 54.67481994628906 C 170.7101745605469 43.10727310180664 190.3984527587891 33.19518280029297 210.8919067382812 25.21409034729004 C 231.5932769775391 17.15190887451172 253.3513641357422 10.96918201446533 275.5619201660156 6.837636470794678 C 298.169189453125 2.632272720336914 321.5315551757812 0.5 345 0.5 C 368.4684448242188 0.5 391.830810546875 2.632272720336914 414.4380798339844 6.837636470794678 C 436.6486511230469 10.96918201446533 458.40673828125 17.15190887451172 479.1080932617188 25.21409034729004 C 499.6015319824219 33.19518280029297 519.289794921875 43.10727310180664 537.6259765625 54.67481994628906 C 555.9297485351562 66.22181701660156 573.0824584960938 79.54218292236328 588.6077880859375 94.26581573486328 C 604.237060546875 109.0881805419922 618.3887939453125 125.4961853027344 630.6697998046875 143.0340881347656 C 643.1322021484375 160.8309020996094 653.8174438476562 180.0063629150391 662.4288940429688 200.0278167724609 C 666.7938232421875 210.17626953125 670.6911010742188 220.7019958496094 674.0122680664062 231.3123626708984 C 677.3751831054688 242.055908203125 680.231201171875 253.1537322998047 682.5009155273438 264.2974548339844 C 684.8021850585938 275.5962829589844 686.5585327148438 287.2262878417969 687.7212524414062 298.8645324707031 C 688.9015502929688 310.6785583496094 689.5 322.8009948730469 689.5 334.895263671875 C 689.5 346.9918212890625 688.9015502929688 359.1908264160156 687.72119140625 371.1535339355469 C 686.5579833984375 382.9429931640625 684.8014526367188 394.7894592285156 682.5004272460938 406.3637390136719 C 677.9739990234375 429.1318969726562 671.2198486328125 451.5273742675781 662.4257202148438 472.9280090332031 C 653.791259765625 493.9400024414062 643.1041870117188 514.2061157226562 630.6614379882812 533.1633911132812 C 618.3369140625 551.9402465820312 604.1831665039062 569.5972900390625 588.59326171875 585.643798828125 C 573.0035400390625 601.6900634765625 555.8494262695312 616.2581176757812 537.6073608398438 628.9431762695312 C 519.1906127929688 641.7496337890625 499.5026245117188 652.7490234375 479.0899963378906 661.6356201171875 C 458.3003540039062 670.6864624023438 436.5443725585938 677.6377563476562 414.4264526367188 682.2962646484375 C 403.1828308105469 684.6644287109375 391.6748962402344 686.47216796875 380.2222595214844 687.6693725585938 C 368.6013488769531 688.8840942382812 356.7509155273438 689.5 345 689.5 Z"/>
        <path class="cls-7" d="M 345 689 C 356.7335510253906 689 368.5665588378906 688.385009765625 380.1702575683594 687.172119140625 C 391.6058044433594 685.9767456054688 403.0966491699219 684.171630859375 414.3234558105469 681.8070068359375 C 436.4082641601562 677.1554565429688 458.1317138671875 670.2145385742188 478.8904418945312 661.17724609375 C 499.2730102539062 652.3036499023438 518.9321899414062 641.3204345703125 537.3218994140625 628.5326538085938 C 555.5377197265625 615.8658447265625 572.6672973632812 601.3187255859375 588.234619140625 585.2953491210938 C 603.8024291992188 569.2715454101562 617.936279296875 551.6394653320312 630.2434692382812 532.8889770507812 C 642.6688232421875 513.9583740234375 653.3408813476562 493.7206420898438 661.9632568359375 472.7380065917969 C 670.7451171875 451.3670959472656 677.4898071289062 429.0028076171875 682.010009765625 406.2662658691406 C 684.3079223632812 394.7079162597656 686.06201171875 382.8777160644531 687.2236328125 371.1044616699219 C 688.40234375 359.1579895019531 689 346.9754638671875 689 334.895263671875 C 689 322.8175354003906 688.40234375 310.7118225097656 687.2237548828125 298.9142761230469 C 686.062744140625 287.292724609375 684.3088989257812 275.6795349121094 682.0109252929688 264.3972778320312 C 679.74462890625 253.2701873779297 676.8930053710938 242.1890869140625 673.53515625 231.4617309570312 C 670.218994140625 220.8676300048828 666.3278198242188 210.3581848144531 661.9695434570312 200.2253570556641 C 653.3716430664062 180.2351837158203 642.7030639648438 161.0898132324219 630.26025390625 143.3208160400391 C 617.9984741210938 125.8103637695312 603.8688354492188 109.4279098510742 588.2637329101562 94.62863922119141 C 572.7620849609375 79.92745208740234 555.6353759765625 66.62727355957031 537.3592529296875 55.09763717651367 C 519.0499267578125 43.54709243774414 499.3903503417969 33.64954376220703 478.9267272949219 25.68000030517578 C 458.2543640136719 17.62918090820312 436.5265502929688 11.45509052276611 414.3466491699219 7.329181671142578 C 391.7694396972656 3.129454612731934 368.4378051757812 1 345 1 C 321.5621948242188 1 298.2305603027344 3.129454612731934 275.6533508300781 7.329181671142578 C 253.4734497070312 11.45509052276611 231.7456359863281 17.62918090820312 211.0732727050781 25.68000030517578 C 190.6096343994141 33.64954376220703 170.9500885009766 43.54709243774414 152.6407318115234 55.09763717651367 C 134.3646392822266 66.62727355957031 117.237907409668 79.92745208740234 101.7362747192383 94.62863922119141 C 86.13117980957031 109.4279098510742 72.00154876708984 125.8103637695312 59.73972702026367 143.3208160400391 C 47.29690933227539 161.0898132324219 36.62836456298828 180.2351837158203 28.03045463562012 200.2253570556641 C 23.67218208312988 210.3581848144531 19.7810001373291 220.8676300048828 16.46481895446777 231.4617309570312 C 13.10700035095215 242.1890869140625 10.25536346435547 253.2701873779297 7.989090919494629 264.3972778320312 C 5.691091060638428 275.6795349121094 3.937272787094116 287.292724609375 2.776272773742676 298.9142761230469 C 1.597636342048645 310.7118225097656 1 322.8175354003906 1 334.895263671875 C 1 346.9754638671875 1.597636342048645 359.1579895019531 2.776363611221313 371.1044616699219 C 3.937999963760376 382.8777160644531 5.69209098815918 394.7079162597656 7.989999771118164 406.2662658691406 C 12.51018142700195 429.0028076171875 19.25490951538086 451.3670959472656 28.03672790527344 472.7380065917969 C 36.65909194946289 493.7206420898438 47.33118057250977 513.9583740234375 59.75654602050781 532.8889770507812 C 72.06372833251953 551.6394653320312 86.19754791259766 569.2715454101562 101.7653656005859 585.2953491210938 C 117.3327255249023 601.3187255859375 134.4622802734375 615.8658447265625 152.6780853271484 628.5326538085938 C 171.0678253173828 641.3204345703125 190.7270050048828 652.3036499023438 211.1095428466797 661.17724609375 C 231.8682708740234 670.2145385742188 253.5917205810547 677.1554565429688 275.6765441894531 681.8070068359375 C 286.9033508300781 684.171630859375 298.3941955566406 685.9767456054688 309.8297424316406 687.172119140625 C 321.4334411621094 688.385009765625 333.2664489746094 689 345 689 M 345 690 C 154.4617309570312 690 0 531.01416015625 0 334.895263671875 C 0 138.7763671875 154.4617309570312 0 345 0 C 535.5382690429688 0 690 138.7763671875 690 334.895263671875 C 690 531.01416015625 535.5382690429688 690 345 690 Z"/>
      </g>
      <text id="F_I_N_E_A_R_T_S." data-name="F I N E A R T S." class="cls-2" transform="translate(134 360)"><tspan x="13.18" y="61">F I N E A R T S</tspan></text>
      <text id="K_S" data-name="K S" class="cls-3" transform="translate(86 41)"><tspan x="99.241" y="224">K</tspan><tspan class="cls-4" y="224"> </tspan><tspan y="224">S</tspan></text>
      <line id="Line_1" data-name="Line 1" class="cls-5" x2="393" transform="translate(140.5 345.5)"/>
    </g>
  </g>
</svg>
